<?xml version="1.0" encoding="UTF-8"?>
<!DOCTYPE svg PUBLIC "-//W3C//DTD SVG 1.1//EN" "http://www.w3.org/Graphics/SVG/1.1/DTD/svg11.dtd">
<!-- Creator: CorelDRAW -->
<svg xmlns="http://www.w3.org/2000/svg" xml:space="preserve" width="87mm" height="50mm" style="shape-rendering:geometricPrecision; text-rendering:geometricPrecision; image-rendering:optimizeQuality; fill-rule:evenodd; clip-rule:evenodd"
viewBox="0 0 87 50"
 xmlns:xlink="http://www.w3.org/1999/xlink">
 <defs>
  <style type="text/css">
   <![CDATA[
    .str1 {stroke:#00B686;stroke-width:0.2646}
    .str0 {stroke:#666666;stroke-width:0.2646}
    .fil2 {fill:#00B686}
    .fil1 {fill:#666666}
    .fil0 {fill:url(#id0)}
   ]]>
  </style>
  <linearGradient id="id0" gradientUnits="userSpaceOnUse" x1="28.7878" y1="20.3766" x2="28.8772" y2="23.3266">
   <stop offset="0" style="stop-color:#00B686"/>
   <stop offset="0.709804" style="stop-color:#0DC4C4"/>
   <stop offset="1" style="stop-color:#2197D6"/>
  </linearGradient>
 </defs>
 <g id="Capa_x0020_1">
  <metadata id="CorelCorpID_0Corel-Layer"/>
  <path class="fil0" d="M28.8353 20.5217c0.4494,1.1327 1.4176,2.6082 0.0823,2.6587 -1.5475,0.0401 -0.6096,-1.2131 -0.0823,-2.6587z"/>
  <path class="fil1" d="M27.9541 20.0377l0.2339 0c0.1971,-1.1003 0.725,-1.9821 2.0125,-2.3614l0 -0.1917c0,-0.1201 0.0904,-0.2183 0.201,-0.2183l0.4475 0 0 -0.0492c0,-0.161 0.1078,-0.2959 0.2488,-0.3239l0 -0.7311 -1.8034 0c-0.1782,0 -0.324,-0.1584 -0.324,-0.352l0 -0.3519 2.4965 0c0.1782,0 0.324,0.1583 0.324,0.3519l0 0.1372 0.0001 0 0 0.9494c0.1335,0.0343 0.2335,0.1652 0.2335,0.3204l0 0.0492 0.3566 0c0.1106,0 0.201,0.0982 0.201,0.2183l0 0.1917 0.4368 0 0 -0.2046c0,-0.1262 0.095,-0.2294 0.2112,-0.2294l0.7082 0c0.1161,0 0.2111,0.1032 0.2111,0.2294l0 0.2046 2.6376 0 0 1.4813 -2.6376 0 0 0.2781c0,0.1261 -0.095,0.2293 -0.2111,0.2293l-0.7082 0c-0.1162,0 -0.2112,-0.1032 -0.2112,-0.2293l0 -0.2781 -0.4368 0 0 0.3139c0,0.1201 -0.0904,0.2183 -0.201,0.2183l-1.9796 0c-0.1106,0 -0.201,-0.0982 -0.201,-0.2183l0 -0.3139c-0.3289,0.2477 -0.5482,0.535 -0.6085,0.8801l0.0713 0c0.0936,0 0.1702,0.0832 0.1702,0.1849l0 0.452c0,0.1017 -0.0766,0.1849 -0.1702,0.1849l-1.7092 0c-0.0936,0 -0.1702,-0.0832 -0.1702,-0.1849l0 -0.452c0,-0.1017 0.0766,-0.1849 0.1702,-0.1849z"/>
  <path class="fil2" d="M31.4792 11.5196c3.6988,0.5923 6.5249,3.7975 6.5249,7.6631 0,1.5963 -0.482,3.08 -1.3084,4.3136l0.341 0.2964 -0.3043 0.35 -2.2314 -1.9398 0.3042 -0.35 0.3101 0.2696c0.5188,-0.858 0.8177,-1.8639 0.8177,-2.9398 0,-2.718 -1.9058,-4.9903 -4.4538,-5.555l0 0.3258 -0.4637 0 0 -2.9568 0.4637 0 0 0.5229zm-1.8703 -0.4874l0.4637 0 0 2.9568 -0.4637 0 0 -0.4611c-2.8444,0.3153 -5.0567,2.7264 -5.0567,5.6548 0,1.6167 0.6745,3.0756 1.7571,4.1115l0.2833 -0.3037 0.3391 0.3162 -2.0165 2.1624 -0.3392 -0.3162 0.3208 -0.344c-1.4878,-1.414 -2.4157,-3.4116 -2.4157,-5.6262 0,-4.0731 3.1378,-7.4124 7.1278,-7.735l0 -0.4155zm-1.9326 12.798l0.3391 0.3162 -0.1805 0.1935c0.7313,0.342 1.5471,0.5332 2.4077,0.5332 1.4036,0 2.6884,-0.5083 3.6807,-1.3507l-0.3098 -0.2693 0.3042 -0.35 2.2315 1.9398 -0.3042 0.35 -0.3458 -0.3005c-1.3826,1.2736 -3.2285,2.0518 -5.2566,2.0518 -1.4102,0 -2.7323,-0.3766 -3.872,-1.034l-0.3717 0.3986 -0.3392 -0.3162 2.0166 -2.1624z"/>
  <rect class="fil1 str0" x="29.6089" y="11.0322" width="0.46375" height="2.95672"/>
  <rect class="fil2 str1" x="31.0148" y="10.9971" width="0.46375" height="2.95672"/>
  <polygon class="fil1 str0" points="34.501,22.2029 34.8052,21.8529 37.0366,23.7927 36.7324,24.1427 "/>
  <polygon class="fil2 str1" points="33.6129,23.2527 33.9171,22.9027 36.1486,24.8425 35.8443,25.1925 "/>
  <polygon class="fil2 str1" points="24.9151,25.4691 24.576,25.1529 26.5926,22.9905 26.9317,23.3067 "/>
  <polygon class="fil1 str0" points="26.0035,26.3079 25.6644,25.9917 27.6809,23.8293 28.02,24.1456 "/>
 </g>
</svg>
